<svg id="visual" viewBox="0 0 960 540" width="960" height="540" xmlns="http://www.w3.org/2000/svg" xmlns:xlink="http://www.w3.org/1999/xlink" version="1.1"><path d="M0 318L26.7 327C53.3 336 106.7 354 160 365.3C213.3 376.7 266.7 381.3 320 386.7C373.3 392 426.7 398 480 407.2C533.3 416.3 586.7 428.7 640 425.2C693.3 421.7 746.7 402.3 800 394.2C853.3 386 906.7 389 933.3 390.5L960 392L960 541L933.3 541C906.7 541 853.3 541 800 541C746.7 541 693.3 541 640 541C586.7 541 533.3 541 480 541C426.7 541 373.3 541 320 541C266.7 541 213.3 541 160 541C106.7 541 53.3 541 26.7 541L0 541Z" fill="#1D2D44" stroke-linecap="round" stroke-linejoin="miter"></path></svg>